<svg t="1651730704289" class="icon" viewBox="0 0 1024 1024" version="1.1" xmlns="http://www.w3.org/2000/svg" p-id="8052" width="200" height="200"><path d="M661.15 72L860 261.81V952H164V72h497.15M666 0H152a60 60 0 0 0-60 60v904a60 60 0 0 0 60 60h720a60 60 0 0 0 60-60V256.67a60 60 0 0 0-18.57-43.4L707.39 16.6A60 60 0 0 0 666 0z" fill="#959CA7" p-id="8053"></path><path d="M530 284H288a36 36 0 1 1 0-72h242a36 36 0 0 1 0 72zM896 295H684a36 36 0 0 1-36-36V47a36 36 0 0 1 72 0v176h176a36 36 0 1 1 0 72zM530 416H288a36 36 0 1 1 0-72h242a36 36 0 0 1 0 72z" fill="#959CA7" p-id="8054"></path><path d="M92 555m20 0l582 0q20 0 20 20l0 276q0 20-20 20l-582 0q-20 0-20-20l0-276q0-20 20-20Z" fill="#3C87F7" p-id="8055"></path><path d="M152.27 753.42h38.55q0.83 11.53 10.74 19.35t26.93 7.83q16.33 0 25.25-6.82a21.78 21.78 0 0 0 8.93-18.22q0-9.57-6.93-15t-21.91-8.79l-28.43-6.52a87.11 87.11 0 0 1-19-6.18 61 61 0 0 1-15.32-10.21 42.44 42.44 0 0 1-10.68-15.55 54.84 54.84 0 0 1-3.81-21q0-18 9.65-31.29A58.26 58.26 0 0 1 192 621.19q16.1-6.58 36.37-6.58 31.53 0 51.09 15.74t19.84 41H262a26.18 26.18 0 0 0-9.55-18.43q-8.72-7.5-24.21-7.5-14.53 0-23 6.41t-8.44 17.4q0 16.57 25.68 21.86l28.69 6.44a98.26 98.26 0 0 1 19.77 6.23 67.87 67.87 0 0 1 16 10.08 40.34 40.34 0 0 1 11.34 15.82 58.1 58.1 0 0 1 3.94 22.2q0 27.65-20.26 43.6t-55.38 16a111.57 111.57 0 0 1-29-3.47q-12.88-3.46-21.14-9.15a55.91 55.91 0 0 1-13.8-13.38 52.27 52.27 0 0 1-7.9-15.6 60.32 60.32 0 0 1-2.47-16.44zM313.71 618.5h46.46l40.49 144.77h1.66l39.94-144.77h44.93l-62.27 189.28H376zM495.65 724.3v-23.57q0-39.38 21.78-62.61t60-23.23a92.77 92.77 0 0 1 32.74 5.48q14.63 5.48 23.75 14.63A67.21 67.21 0 0 1 648 655.59a64.73 64.73 0 0 1 5.43 24.06h-39.36q-1.81-14.76-11.88-23.12t-25.35-8.36q-18.76 0-29.87 13.27T535.86 701v23.21q0 24.88 10.07 39.4t31.32 14.52q17.23 0 27.64-9.37a29.89 29.89 0 0 0 10.42-23.15V735h-36.74v-29.83h75.16v37.44a74 74 0 0 1-2.44 18.86 64.82 64.82 0 0 1-8.29 18.44A66.36 66.36 0 0 1 628.52 796q-8.64 6.94-22 11.16a98.57 98.57 0 0 1-29.81 4.23q-20.61 0-36.31-6.52A63.45 63.45 0 0 1 515 786.5a80.64 80.64 0 0 1-14.51-27.5 117 117 0 0 1-4.84-34.7z" fill="#FFFFFF" p-id="8056"></path></svg>