<svg t="1651729901400" class="icon" viewBox="0 0 1024 1024" version="1.1" xmlns="http://www.w3.org/2000/svg" p-id="4345" width="200" height="200"><path d="M544 768l-384 0C142.336 768 128 753.664 128 736l0-384C128 334.336 142.336 320 160 320l384 0C561.664 320 576 334.336 576 352S561.664 384 544 384L192 384l0 320 352 0C561.664 704 576 718.336 576 736S561.664 768 544 768zM288 512C270.336 512 256 526.336 256 544S270.336 576 288 576l192 0C497.664 576 512 561.664 512 544S497.664 512 480 512L288 512zM800 896 704 896 704 192l96 0C817.664 192 832 177.664 832 160S817.664 128 800 128l-256 0C526.336 128 512 142.336 512 160S526.336 192 544 192L640 192l0 704L544 896C526.336 896 512 910.336 512 928S526.336 960 544 960l256 0c17.664 0 32-14.336 32-32S817.664 896 800 896zM864 320l-64 0C782.336 320 768 334.336 768 352S782.336 384 800 384L832 384l0 320-32 0c-17.664 0-32 14.336-32 32s14.336 32 32 32l64 0c17.664 0 32-14.336 32-32l0-384C896 334.336 881.664 320 864 320z" p-id="4346" fill="#bfbfbf"></path></svg>