<svg xmlns="http://www.w3.org/2000/svg" width="403.658" height="403.3" viewBox="0 0 403.658 403.3">
  <path id="spring-icon" d="M367.6,29.3A175.634,175.634,0,0,1,346,67.1C309.4,29.7,258.2,6,201.7,6,90.6,6,0,96.2,0,207.6c0,58.2,24.9,110.6,64.4,147.6l7.5,6.7a200.535,200.535,0,0,0,129.7,47.4c106,0,193.3-82.7,200.8-187.1C408.3,171.5,392.9,106.6,367.6,29.3ZM93.6,356.9c-5.8,7.5-16.6,8.3-24.1,2.5s-8.3-16.6-2.5-24.1,16.6-8.3,24.1-2.5A17.58,17.58,0,0,1,93.6,356.9Zm272.7-60.3c-49.5,66.1-155.9,43.7-223.7,47,0,0-12.1.8-24.1,2.5,0,0,4.6-2.1,10.4-4.2,47.8-16.6,70.3-20,99.4-34.9,54.5-27.9,108.9-89,119.8-152.2-20.8,60.7-84,113.1-141.4,134.3-39.5,14.6-110.6,28.7-110.6,28.7l-2.9-1.7c-48.3-23.6-50-128.4,38.2-162.1,38.7-15,75.3-6.7,117.3-16.6,44.4-10.4,96-43.7,116.8-87.4C388.8,120.3,417.1,229.3,366.3,296.6Z" transform="translate(0 -6)" fill="#6cb52d"/>
</svg>
